<?xml version="1.0" encoding="UTF-8"?><svg id="a" xmlns="http://www.w3.org/2000/svg" viewBox="0 0 159.34 136.1"><defs><style>.b{fill:#ee721c;}.b,.c,.d{stroke-width:0px;}.c{fill:#e84258;}.d{fill:#f18d9a;}</style></defs><path class="c" d="m71.74,72.5c7.2-7,1.3-22.8-1-28.8-2.4-6.4-6.6-17.8-18.3-24.3-7.7-4.2-23.6-9.2-32.8-.5s-5.1,25.2-.7,33.5c6.6,12.6,19,16.8,26.2,19.3,7.1,2.4,20.2,7,26.6.8Z"/><path class="c" d="m72.34,85.2c-2.7-9.7-19.4-12-25.8-12.9-6.9-1-18.9-2.7-30.1,4.5-7.6,4.9-19.3,16.9-15.8,29.1,3.6,12.2,19.9,16,28.8,16.1,14.2.2,23.9-8.7,29.4-13.8,5.7-5.1,15.9-14.4,13.5-23Z"/><path class="c" d="m102.84,136c.3-.8.6-1.5.8-2.3,4.2-13.7-1.6-25.5-4.9-32.1-3.3-6.8-9.4-19.2-18.3-19.4-10-.2-17,15.2-19.7,21.1-2.9,6.3-8,17.3-4.2,30.1.2.8.6,1.7.9,2.7l45.4-.1Z"/><path class="c" d="m86.24,78.8c-2.1,9.8,11.6,19.7,16.8,23.4,5.7,4.1,15.4,11.2,28.7,10,8.6-.8,24.4-5.6,27.2-17.9,2.8-12.4-9.5-23.7-17.7-28.2-12.4-6.8-25.1-3.4-32.5-1.5-7.2,1.9-20.6,5.5-22.5,14.2Z"/><path class="c" d="m80.64,75.2c8.8,4.8,22.1-5.7,27.2-9.6,5.4-4.3,15-11.6,17.6-24.8,1.6-8.2,1.8-24.7-9.2-31s-25.6,2.1-32.5,9c-10,10-10.3,23.1-10.4,30.8-.2,7.5-.5,21.4,7.3,25.6Z"/><path class="d" d="m76.74,78.3c2.1-9.8-11.6-19.7-16.8-23.5-4.7-3.4-14.7-10.6-28.7-10-10,.4-28.2,5.1-30.8,17.5s12,24.1,21.3,28.6c13.4,6.5,26.4,3.1,32.5,1.5,7.2-1.9,20.6-5.4,22.5-14.1Z"/><path class="d" d="m79.54,81.5c-7.6-6.5-22.8.8-28.6,3.6-5.2,2.5-16.3,7.8-22.5,20.5-3.7,7.5-7.4,21.2-3.1,30.4h39.1c12.1-8.7,15.3-21.7,16.8-27.8,1.7-7.4,5-20.9-1.7-26.7Z"/><path class="d" d="m95.84,135.7c.2.1.3.2.5.3h38.6c4.2-9.1.9-22.6-2.7-30.2-6.4-13.5-18.6-19-24.3-21.6-6.9-3.1-19.5-8.8-26.5-3.2-7.8,6.3-3.4,22.6-1.7,28.8,1.5,5.6,4.8,17.5,16.1,25.9Z"/><path class="d" d="m82.34,78.7c4.2,9.1,21.1,8.6,27.6,8.4,5.7-.2,18.1-.5,28.9-9.5,7.7-6.4,19.3-21.1,13.9-32.6-5.5-11.5-24.2-11.9-34.3-9.8-14.6,3-22.8,13.6-26.7,18.5-4.7,6-13.2,16.9-9.4,25Z"/><path class="d" d="m81.04,76.2c9.8-2.3,12.8-18.9,13.9-25.3,1-5.6,3.2-17.8-3.3-30.2C86.94,11.8,74.94-2.6,62.54.4s-16.6,21.2-16.6,31.6c-.1,14.9,8.6,25.1,12.6,29.9,4.9,5.8,13.8,16.4,22.5,14.3Z"/><path class="b" d="m81.34,83.7c4,0,7.3-3.2,7.3-7.3s-3.2-7.3-7.3-7.3-7.3,3.2-7.3,7.3c.1,4.1,3.3,7.3,7.3,7.3Z"/></svg>