<?xml version="1.0" encoding="UTF-8"?><svg id="a" xmlns="http://www.w3.org/2000/svg" viewBox="0 0 178.11 244.56"><defs><style>.b{fill:#43a235;stroke-width:0px;}</style></defs><path class="b" d="m16.4,211.56c-7-9.3-11-20.1-16.4-34.9v66c9.3,2.3,15.9,2,19.4,1.7,3.2-.3,20.8-2,22.1-8.8,1.2-6-12.8-7.6-25.1-24Z"/><path class="b" d="m170.8,179.16c-5.4-8-4.5-15.8-5.1-24-.2-2.7-3-28.1-20.4-42.4-8.4-6.9-17.9-8.7-20.5-9.2-8.5-1.6-16.6-.7-26,.3-8.1.9-14.2,1.8-14.2,1.8-10.2,1.4-14.5,2.3-15.2.8-.9-1.9,4.2-6,4.7-6.4,2.4-1.9,6.9-4.8,20.2-6.5,8.7-1.2,17.5-1.2,26.2-.1,4.2.5,8.4,1.4,12.4,2.6,14.2,4.8,19.1,12.9,21.9,11.2,3.2-2-.1-14.3-5-23.3-4-7.3-9.5-13.5-16.3-18.3-15.5-10.9-32.4-10.5-37.8-10.3-20.4.7-41.2,10.9-50.2,17-5.6,3.8-8.7,4.8-14.8,6.8-4,1.4-8.3,1.8-12.5,1.1-2.6-.5-4.7-.9-5-2.1-.7-2.6,7.8-7.3,17.6-12,24.4-11.8,36.6-17.8,50.5-19.3,21.7-2.5,32.1,4.4,34.5-.1,3.5-6.4-15.9-25.7-36.8-35.9C65.3,4.06,52.9,2.36,45.6,1.36,36.3.16,24-1.34,8.6,2.26c-2.2.5-5.2,1.2-8.6,2.4v130.5c5.4,11.1,5.9,18.1,11.4,35.1,2.2,7.1,4.7,14,7.7,20.8,2.9,6.6,6.3,13,10.1,19.1,4.2,6,9.8,10.9,16.2,14.4,19.4,10.4,39.2,3,44.5,1,8.7-3.3,18.6-9.3,17.7-12.5s-11.4.4-23.9-5.4c-9.7-4.4-15.4-12-19.8-17.8-4.1-5.5-6.2-10-10.3-19.1-2.1-4.6-4.4-10.4-4.4-17.9,0-1.4.1-5.6,1.3-5.9.3-.1,1.4,0,5.5,8.4,2,4,7.3,14.4,9.4,17.5,3.6,5.2,6.6,9.2,7.3,10.1,1.4,1.9,10.5,13.5,21.6,18.4,20.4,9,47.1-5.1,49-6.1,6.9-3.7,13.3-8.9,22.9-8.3,5.9.4,11,2.8,11.8,1.3.9-1.4-3.9-4.2-7.2-9.1Z"/></svg>