<?xml version="1.0" encoding="UTF-8"?><svg id="a" xmlns="http://www.w3.org/2000/svg" viewBox="0 0 307.49 154.03"><defs><style>.b{fill:#ee721c;stroke-width:0px;}</style></defs><path class="b" d="m307.49,78.53c-9.1-16.5-22.5-34.2-42.1-50.5-12.7-10.6-25.7-18.7-41.7-23.7C206.49-1.17,194.79-.17,189.29.63c-3.8.6-25.1,3.7-26.2,12-1.1,7.5,16,8.5,31.8,27.7,9,10.9,14.5,23.7,22.1,41.4,2.7,6.3,4.4,11.2,5.5,14.2,2.8,8.3,4.6,15.4,6.4,22.9,2.2,9,6,28,2.8,29.2-2.5.9-8.5-9.4-10.9-13.5-8.4-14.6-9.2-22.8-17.2-44.4-3-8.5-6.6-16.7-10.6-24.8-4-7.8-8.4-15.4-13.4-22.6-5.5-7-12.5-12.6-20.5-16.5-24.2-11.5-47.7-1.3-54.1,1.4-10.3,4.5-22,12.4-20.7,16.2,1.2,3.8,13.8-1.1,29.3,5.1,12,4.8,19.3,13.6,25,20.4,5.4,6.4,8.1,11.8,13.6,22.6,2.8,5.4,6,12.4,6.4,21.4.1,1.7.2,6.8-1.2,7.2-.4.1-1.7.1-7.2-9.9-2.6-4.8-9.7-17-12.5-20.7-4.7-6.1-8.5-10.7-9.5-11.9-1.9-2.2-13.5-15.8-27.3-21.1-25.3-9.7-56.8,9-59.1,10.4-8.1,5-15.5,11.6-27.3,11.5-7.2-.1-13.5-2.8-14.4-.9s5.1,5.1,9.5,10.8c7.1,9.3,6.4,18.9,7.6,28.8.3,2.5,3.2,20.7,14.3,36.5h276v-75.5h0Z"/></svg>