<?xml version="1.0" encoding="utf-8"?>
<!-- Generator: Adobe Illustrator 26.0.1, SVG Export Plug-In . SVG Version: 6.00 Build 0)  -->
<svg version="1.1" id="Слой_1" xmlns="http://www.w3.org/2000/svg" xmlns:xlink="http://www.w3.org/1999/xlink" x="0px" y="0px"
	 viewBox="0 0 857.9 630.6" style="enable-background:new 0 0 857.9 630.6;" xml:space="preserve">
<style type="text/css">
	.st0{fill:#EE721C;}
	.st1{fill:#43A235;}
	.st2{fill:#F39346;}
</style>
<path class="st0" d="M485.6,1c12.7,14,25.3,30.4,40.1,49.6c9.9,12.9,16.8,23,20.8,29.3c11.2,17.3,19.3,32.7,27.7,48.8
	c10.1,19.3,29.6,60.8,22.6,65.6c-5.6,3.8-25.6-16.3-33.5-24.3c-28.3-28.4-34.4-46.9-65.5-91.4c-11.9-17.6-24.9-34.4-38.9-50.4
	c-8.4-9.4-17.1-18.5-26.3-27.2H222.2c-21.3,16.9-42.2,40.3-37.4,47.9c5,8,32.6-11.4,73.6-7.1c31.5,3.3,54.1,19,71.4,31
	c16.4,11.4,26,22,45.1,43.4c9.7,10.8,21.2,24.7,26.9,45.3c1.1,3.9,4.2,15.4,0.8,17.4c-0.9,0.5-4,1.2-22.7-18.2
	c-8.9-9.3-32.5-33-41.2-39.7c-14.5-11.2-26.3-19.3-29.3-21.3c-5.7-3.8-41.2-27.7-77.2-31c-66.2-6-132.5,57.6-137.1,62.1
	c-17,16.7-31.3,36.9-59.7,44.1c-17.4,4.5-34.2,2.3-35.3,7.2c-1.1,4.9,15.1,8.4,28.7,18.9c22.1,17,25.7,39.5,33.9,61.7
	c2.6,7.4,31,74.9,92.9,98.4c29.8,11.4,58.7,7.5,66.8,6.5c26-3.3,48.7-13.3,75-24.9c22.8-10,39.7-17.9,39.7-17.9
	c28.4-13.3,40.1-19.7,43.4-16.2c4.1,4.3-7.5,20.6-8.6,22c-5.5,7.6-16.2,19.6-53.3,36.5c-24.2,11.3-49.7,19.5-75.8,24.5
	c-12.6,2.6-25.3,4-38,4.1c-45,0-65.6-18.1-72.3-10.7c-7.6,8.3,11.7,39.3,33.1,59.7c17.3,16.4,38.4,28.6,61.8,35.7
	c53.5,15.8,102.1-0.8,117.6-6.2c58.6-20.8,110.6-68,131.8-93.3c13.1-15.7,21.2-21.3,37.4-32.5c10.5-7.7,22.7-12.7,35.4-14.6
	c7.8-1,14.2-1.8,16.1,1.1c4.2,6.4-16.9,27.4-41.5,49.6c-61.1,55.2-91.6,82.9-130.8,100c-60.9,26.8-96.4,17.3-100,32.1
	c-5,20.9,66.5,56.5,135.2,65.4c45.3,5.8,82.8-0.8,104.6-4.8c27.9-5.2,64.8-12.3,106.5-36.6c17.6-10.2,52.8-31.3,81.5-72.5
	c13.8-19.1,24.1-40.3,30.3-62.5c17.7-64.9-17.5-83.2,1.3-134c12-32.5,29.3-33,52.5-83.8c8.3-18.2,14.7-37,19.2-56.3l0-7.6
	c0-3.6-14.4-61.1-66.9-122.8H485.6z"/>
<path class="st1" d="M858.8,14.3C855.5,11.9,848,6.9,836.5,1H491.1c-10.4,5.7-20.6,12.1-30.5,19.7c-33.4,24.8-47.3,48.1-53.2,59.5
	c-4.1,7.9-26.8,52-12.9,65.2c12.5,12.1,37.4-18.4,94.6-22.4c32.5-2.3,63.9,4.7,107.2,14.4c15.4,3.5,26.9,6.7,33.9,8.9
	c19.2,5.9,35,12.2,51.5,18.9c19.7,8,60.5,26.3,58.4,33.9c-1.6,6-29.1,3.2-40,2.1c-38.8-3.9-55.1-13.6-106.2-27.4
	c-19.9-5.7-40.1-10.2-60.6-13.5c-20-3.1-40.1-4.9-60.4-5.4c-20.4,0.9-40.4,6.5-58.4,16.3c-54,29.8-66.6,87.5-70.1,103.1
	c-5.5,25.4-6.3,57.8,2.5,60.7c8.8,2.8,16.4-27.2,49.1-48c25.1-16,51.5-17.9,71.9-19.4c19.2-1.4,33,0.7,60.6,4.8
	c13.9,2.1,31.3,5.4,48.6,16.9c3.3,2.2,13,8.6,11.8,12c-0.4,0.9-2.2,3.2-28.2,0.2c-12.4-1.5-44.8-4.7-55.4-4.4
	c-17.7,0.5-31.5,1.5-34.9,1.8c-6.6,0.6-47.7,4.1-76.1,22.8c-52.1,34.3-59.5,118.6-60,124.5c-1.7,21.9,0.8,44.7-15.2,66.5
	c-9.8,13.4-23.4,21.6-21.1,25.8c2.4,4.2,16.3-2.8,33-3.2c27-0.7,44,13.4,64.2,24.5c6.7,3.8,70.6,35.6,130.6,16.4
	c29-9.2,47.5-28.8,52.7-34.3c16.8-17.5,26.9-37.9,38.7-61.6c10.2-20.5,17.4-36,17.4-36c12.2-26.1,16.5-37.5,21.2-36.9
	c5.7,0.7,7.7,19.1,7.9,20.8c0.9,8.7,0.8,23.6-15.5,57.2c-10.4,22.2-23.7,43-39.5,61.8c-7.5,9.2-15.9,17.6-25.1,25.1
	c-32.8,26.2-59.3,25.3-59.5,34.5c-0.2,10.4,33.7,21.4,62.3,23.6c23.1,1.7,46.3-1.9,67.8-10.4c49-19.8,73.9-60.1,81.6-73
	c29.4-49.1,37-113.3,36.2-143.8c-0.6-18.9,1.8-27.7,6.4-45.2c2.7-11.6,8.4-22.3,16.4-31.1c5-5.3,9.2-9.6,12.4-8.6
	c7.2,2.2,5.2,29.5,1.5,59.8c-9.1,75.2-13.6,112.9-31.1,148c-27.1,54.8-59.1,68.6-52.2,81.3c9.3,17.2,78.5,3.1,133.2-27.8V14.3z"/>
<path class="st2" d="M858.8,1H695.5c2.1,15.6,2.8,29.4-1.3,30.8c-5.7,2-18.5-20.7-24.1-30.8H213.4c8.9,23.4,23.9,50.5,48.9,69.6
	c24.1,18.6,50.8,22.6,58.2,23.8c24,3.8,46.5,0.5,72.6-3.3c22.6-3.3,39.5-6.2,39.5-6.2c28.4-4.9,40.2-7.8,42.4-3.6
	c2.7,5.1-11.3,17.2-12.6,18.3c-6.7,5.7-18.9,14-55.8,19.9c-24.2,4.1-48.8,5-73.2,2.8c-11.8-0.9-23.5-3-34.9-6.3
	c-40.2-12-54.6-34.3-62.3-29.2c-8.7,5.8,1.7,39.9,16.2,64.7c11.8,19.9,27.9,37,47.2,49.8c44.3,29,91.5,26.4,106.5,25.4
	c57.1-3.9,114.1-34.2,138.7-52.2c15.2-11.2,23.8-14.3,40.8-20.5c11.1-4.4,23.1-5.8,34.9-4.2c7.2,1.1,13.1,2.1,14.1,5.3
	c2.3,7.1-21.2,21.1-48.2,35.3c-67,35.4-100.5,53.2-139.4,58.8c-60.5,8.9-90.1-9.5-96.6,3.5c-9.2,18.2,46.8,70.6,106.2,97.1
	c39.2,17.5,74.2,21.3,94.5,23.3c26.1,2.6,60.7,5.7,103.4-5.9c18-4.9,54.2-15.2,89.1-46.2c16.6-14.2,30.5-31.3,41.1-50.5
	c30.4-56,3-82.5,31.2-125c13.1-19.7,24.9-23,42.6-39.1V1z"/>
</svg>
