<?xml version="1.0" encoding="UTF-8"?><svg id="a" xmlns="http://www.w3.org/2000/svg" viewBox="0 0 209.88 271.1"><defs><style>.b{fill:#ee721c;}.b,.c,.d,.e{stroke-width:0px;}.c{fill:#e84258;}.d{fill:#50bcbd;}.e{fill:#f18d9a;}</style></defs><path class="d" d="m37.38.1c-2.4,8.1-3.8,17.4.6,21.1,7.1,6,19.2-11,49.3-15.1,17.1-2.3,34,.3,57.2,4,8.3,1.3,14.5,2.6,18.3,3.5,10.4,2.5,18.9,5.3,27.9,8.2,5.1,1.7,12.5,4.4,19,7.3V.1s-172.3,0-172.3,0Z"/><path class="d" d="m209.78,40.4c-3.2,0-6-.1-8-.2-20.7-.7-29.6-5.3-57.2-10.9-10.7-2.3-21.6-4-32.5-5.1-10.7-1-21.4-1.2-32.2-.8-10.8,1.2-21.2,4.8-30.4,10.6-27.6,17.6-32.3,48.6-33.6,57-2.1,13.6-1.3,30.8,3.4,32s7.8-15,24.3-27.1c12.7-9.3,26.7-11.2,37.4-12.7,10.1-1.4,17.5-.8,32.3.5,7.4.6,16.7,1.8,26.3,7.3,1.8,1,7.2,4.1,6.6,5.9-.2.5-1,1.8-15,1.1-6.6-.4-23.9-1-29.5-.4-9.4.9-16.7,1.9-18.4,2.1-3.4.5-25.1,3.8-39.5,14.7-26.4,19.9-27.5,64.8-27.5,68-.1,11.7,2,23.7-5.8,35.7-4.7,7.4-11.7,12.3-10.3,14.4,1.4,2.1,8.6-2,17.4-2.8,14.3-1.3,23.7,5.6,34.8,10.8,3.7,1.8,38.6,16.5,69.7,4.2,15.1-5.9,24.2-16.9,26.8-20,8.3-9.9,13-21,18.4-33.9,4.7-11.2,8-19.7,8-19.7,5.6-14.2,7.5-20.4,10-20.3,3.1.2,4.7,9.9,4.9,10.7.8,4.6,1.2,12.5-6.2,30.8-4.8,12.1-11.1,23.6-18.8,34.1-3.6,5.1-7.8,9.9-12.4,14.1-16.5,15-30.6,15.4-30.3,20.3.2,5.5,18.6,10.2,33.8,10.3,12.3.1,24.4-2.6,35.5-7.8,7.1-3.4,12.8-7.5,17.9-12l.1-210.9Z"/><path class="c" d="m149.08.1h-67.1c-4.2,12.8.5,29,5.5,38.3,9.7,18.3,27.9,24.5,38.3,28,10.5,3.6,29.7,10.2,39.1,1.2,10.6-10.1,1.9-33.2-1.4-42-2.5-6.6-6.3-16.8-14.4-25.5Z"/><path class="c" d="m165.78,86.6c-3.9-14.3-28.4-17.8-37.8-19.2-10.2-1.5-27.6-4.1-44.1,6.7-11.2,7.3-28.3,25-23.1,43.1s29.1,23.7,42.2,23.9c20.9.3,35-12.9,43.1-20.4,8.2-7.5,23.2-21.3,19.7-34.1Z"/><path class="c" d="m209.78,123.2c-1.8-5.4-3.7-9.1-5.5-12.7-4.8-10-13.6-28.3-26.6-28.6-14.6-.3-24.8,22.4-28.7,31-4.2,9.3-11.6,25.5-6.1,44.4,3.8,13.2,16,34.9,34.5,34.8,16.8-.1,27.7-17.3,32.5-29.9l-.1-39Z"/><path class="c" d="m209.78,59.3c-10.2,3.2-21.7,8.4-23.8,18.1-3,14,15.7,27.9,23.8,33.7v-51.8Z"/><path class="c" d="m174.88.1c-6.7,12.3-7,25.5-7.2,34.1-.3,11-.8,31.2,10.7,37.4,9.5,5.1,22.3-1.5,31.5-7.9V0l-35,.1Z"/><path class="e" d="m171.98,76.8c3.1-14.5-16.9-29.1-24.6-34.7-6.8-5-21.5-15.6-42-14.8-14.7.6-41.3,7.5-45.1,25.8-3.9,18.4,17.6,35.7,31.2,42.3,19.6,9.6,38.6,4.6,47.5,2.2,10.7-2.6,30.3-7.8,33-20.8Z"/><path class="e" d="m176.08,80.9c-11.1-9.6-33.5,1.1-42,5.3-7.6,3.7-23.9,11.5-33,30.1-6.5,13.2-13.2,40,.9,52.1,14.1,12.1,39.5,1.4,51.8-7.4,17.8-12.8,22.4-31.9,24.7-40.9,2.7-10.9,7.5-30.6-2.4-39.2Z"/><path class="e" d="m209.78,81.8c-10.2-4.1-22.9-7.7-30.9-1.3-11.5,9.2-5,33-2.4,42.1,2.2,8.1,7,25.5,23.7,37.8,2.7,2,5.8,4.1,9.6,6.1v-84.7Z"/><path class="e" d="m209.78,24.5c-7.3,5.7-12,11.7-15.1,15.6-6.8,8.7-19.2,24.7-13.7,36.5,4.4,9.4,17.8,11.8,28.8,12.3V24.5Z"/><path class="e" d="m128.18.1c-.4,3.1-.6,5.9-.6,8.5-.1,21.7,12.6,36.6,18.6,43.6,7.2,8.4,20.3,23.8,33.1,20.8,14.3-3.3,18.8-27.6,20.4-36.8,1.3-7,3.8-20.9-1.5-36.1,0,0-70,0-70,0Z"/><path class="b" d="m178.98,84.3c5.7,0,10.3-4.6,10.3-10.3s-4.6-10.3-10.3-10.3-10.3,4.6-10.3,10.3c0,5.7,4.7,10.3,10.3,10.3Z"/></svg>